#tb 0: 1/4
#media_type 0: video
#codec_id 0: rawvideo
#dimensions 0: 500x375
#sar 0: 1/1
0,          0,          0,        1,   187500, 0xf2c26a39
0,          1,          1,        1,   187500, 0xf65e6ea5
0,          2,          2,        1,   187500, 0x804f78d0
0,          3,          3,        1,   187500, 0x47a69f58
0,          4,          4,        1,   187500, 0x7286207c
0,          5,          5,        1,   187500, 0x8e4111fc
0,          6,          6,        1,   187500, 0x8e2af3ba
0,          7,          7,        1,   187500, 0xdae8b4e3
0,          8,          8,        1,   187500, 0x43178cdd
0,          9,          9,        1,   187500, 0xcecdf216
0,         10,         10,        1,   187500, 0x31a4c772
0,         11,         11,        1,   187500, 0x7e09b58d
0,         12,         12,        1,   187500, 0x92e9a999
0,         13,         13,        1,   187500, 0x4fdc7c43
0,         14,         14,        1,   187500, 0xf03945bd
0,         15,         15,        1,   187500, 0xb87d0fa8
0,         16,         16,        1,   187500, 0xf85a99ac
0,         17,         17,        1,   187500, 0x08bb0d34
0,         18,         18,        1,   187500, 0x82216d03
0,         19,         19,        1,   187500, 0xc4ce0a7b
0,         20,         20,        1,   187500, 0x099863c2
0,         21,         21,        1,   187500, 0xc5e44d02
0,         22,         22,        1,   187500, 0x2fa8c68a
0,         23,         23,        1,   187500, 0x8ee13c76
0,         24,         24,        1,   187500, 0xbd6f9e6a
0,         25,         25,        1,   187500, 0x8017e354
0,         26,         26,        1,   187500, 0x6d471686
0,         27,         27,        1,   187500, 0xfb675046
0,         28,         28,        1,   187500, 0x8c6b8e59
0,         29,         29,        1,   187500, 0x421bb7a6
0,         30,         30,        1,   187500, 0x09bb7932
